<?xml version="1.0" encoding="utf-8"?>
<!-- Generator: Adobe Illustrator 23.0.1, SVG Export Plug-In . SVG Version: 6.00 Build 0)  -->
<svg version="1.1" id="Layer_1" xmlns="http://www.w3.org/2000/svg" xmlns:xlink="http://www.w3.org/1999/xlink" x="0px" y="0px"
	 viewBox="0 0 1920 1080" style="enable-background:new 0 0 1920 1080;" xml:space="preserve">
<style type="text/css">
	.st0{fill:#FCFCFC;}
	.st1{fill:#FCFCFC;stroke:#FFFFFF;stroke-miterlimit:10;}
</style>
<g>
	<path class="st0" d="M917,396.3c-3.9-1.2-6.4,1.2-2.8,4.5c1.5,1.4,3.4,2.6,3.1,5c-0.3,2.2-2,4.2-3.9,5c-0.1,0.1-0.3,0.1-0.4,0.2
		c-0.1,0-0.2,0.1-0.2,0c0,0-0.3,0.1-0.3,0.1c-0.4,0.1-0.8,0.2-1.2,0.2c-1.7,0.2-3.6,0-5.7-0.5c-7.7-2-15-6-21.9-10.4
		c-12.5-8-26.8-18.1-32.8-32.9c-2.7-6.8-3.1-12-3.1-12s-1.7,0.2-2.5,0.3c-6.8,1-11.4,5.1-11.4,5.1c2.7-3.7,6.8-6.5,10.6-8.2
		c1.2-0.5,2.4-1.1,3.6-1.7c1.6-0.8,3.2-1.7,4.6-2.7c1.2-0.9,2.3-2.1,3.3-3.5c2-2.9,3.1-6.5,3.1-10c-0.1-4.8-2-7.8-4-11.9
		c-1-2-1.6-4.3-2.6-6.2c-4.5-24.7-20.9-56.4-40.5-56.7c-19.6,0.3-36.1,32-40.5,56.7c-1,2-1.6,4.2-2.6,6.2c-2,4.1-3.9,7.1-4,11.9
		c-0.1,3.4,1.1,7.1,3.1,10c0.9,1.4,2,2.6,3.3,3.5c1.4,1.1,2.9,1.9,4.6,2.7c1.2,0.6,2.4,1.1,3.6,1.7c3.8,1.7,7.9,4.5,10.6,8.2
		c0,0-4.6-4.1-11.3-5.1c-0.8-0.1-2.5-0.3-2.5-0.3s-0.4,5.2-3.1,12c-6,14.8-20.3,25-32.8,32.9c-6.8,4.3-14.1,8.3-21.8,10.4
		c-2.1,0.5-4,0.7-5.7,0.5c-0.4,0-0.8-0.1-1.2-0.2c0,0-0.3-0.1-0.3-0.1c0,0-0.1,0-0.2,0c-0.1,0-0.3-0.1-0.4-0.2
		c-1.9-0.8-3.7-2.7-3.9-5c-0.3-2.4,1.6-3.6,3.1-5c3.6-3.3,1-5.6-2.8-4.5c-5.1,1.5-8.3,6.6-7.2,12.2c0.2,1.3,0.7,2.6,1.3,3.8
		c0,0.2-0.1,0.3-0.1,0.5c0,0.8,0.5,1.6,1.1,1.9c0,0.1,0,0.3,0,0.4c0,1.2,0.9,2.2,2,2.2c0,1.2,0.9,2.2,2,2.2c0.5,0,0.9-0.2,1.3-0.5
		c0.2,0.9,1,1.7,2,1.7c0.6,0,1.1-0.3,1.5-0.7c0,0,0,0,0.1,0c0.3,0.8,1,1.4,1.9,1.4c0.7,0,1.3-0.4,1.7-0.9c0.1,0,0.1,0,0.2,0
		c0.1,1.1,1,1.9,2,1.9c1,0,1.8-0.8,2-1.8c0.3,0.7,1,1.3,1.8,1.3c1,0,1.8-0.8,2-1.8c0.3,0.8,1,1.3,1.9,1.3c1.1,0,2-1,2-2.1
		c0.4,0.7,1,1.1,1.8,1.1c1.1,0,1.9-0.9,2-2c0.4,0.6,1,1,1.7,1c1,0,1.9-0.8,2-1.8c0.2,0.1,0.5,0.1,0.7,0.1c1,0,1.9-0.8,2-1.8
		c0.2,0.1,0.5,0.1,0.7,0.1c1,0,1.9-0.8,2-1.8c0.2,0.1,0.5,0.1,0.7,0.1c1,0,1.9-0.8,2-1.8c0.2,0.1,0.5,0.1,0.7,0.1c1,0,1.8-0.8,2-1.8
		c0,0,0,0,0,0c0.2,0.1,0.4,0.1,0.7,0.1c1,0,1.8-0.7,2-1.7c0.1,0,0.1-0.1,0.2-0.1c0.2,0.1,0.4,0.1,0.6,0.1c1,0,1.8-0.7,2-1.7
		c0,0,0.1,0,0.1-0.1c0.2,0.1,0.4,0.1,0.6,0.1c1,0,1.9-0.8,2-1.8c0.2,0.1,0.5,0.1,0.7,0.1c1,0,1.9-0.8,2-1.8c0.2,0.1,0.5,0.1,0.7,0.1
		c1,0,1.9-0.8,2-1.8c0.2,0.1,0.4,0.1,0.7,0.1c-1.1,1.7-2.2,3.3-3.2,5c-2.9,5-5.2,10.1-7.3,15c-2.1,4.9-3.9,9.6-5.9,14
		c-0.5,1.1-1,2.2-1.5,3.3l-1.5,3.2c-1,2.1-2,4.1-3.1,5.9c-2.1,3.7-4.5,6.8-7.1,8.8c-1.3,1-2.7,1.8-4.1,2.3c-1.4,0.5-3,0.8-4.4,0.8
		c-2.9,0-5.5-1.1-7.3-2.8c-1.8-1.7-2.6-4-2.7-6.4c0-1.2,0.1-2.6,0.4-3.6c0.3-1.1,0.8-2.2,1.3-3.2c0.5-0.9,1.1-1.7,1.7-2.3
		c0.6-0.5,1.1-0.8,1.5-0.9c0.5-0.1,1-0.1,1.6,0.1c0.3,0.1,0.7,0.4,1.1,0.8c0.7,0.9,1.1,2,1.2,2.9c0.1,0.9,0.1,1.6,0,2.2
		c-0.1,0.6-0.1,1.1,0.1,1.4c0.2,0.3,0.5,0.6,0.9,0.7c0.4,0.1,0.9-0.1,1.5-0.5c1.2-0.9,2.5-3.4,2-6.8c-0.1-0.8-0.4-1.7-0.8-2.7
		c-0.4-0.9-1-1.9-2-2.8c-0.5-0.5-1-0.9-1.7-1.2l-0.2-0.1l-0.1,0l0,0c-0.1,0,0.1,0.1,0.1,0l-0.1,0c-0.1-0.1-0.3-0.1-0.4-0.2
		c-0.3-0.1-0.6-0.3-0.9-0.3c-1.3-0.4-2.9-0.5-4.4-0.1c-1.5,0.4-2.9,1.2-4.1,2.2c-1.2,1-2.2,2.2-3.1,3.5c-0.9,1.3-1.6,2.8-2.3,4.5
		c-0.3,0.8-0.6,1.9-0.7,2.8c-0.2,0.9-0.3,1.9-0.4,2.9c-0.1,1.1,0,2.4,0.1,3.6c-0.1,0.3-0.2,0.6-0.2,1c0,0.6,0.2,1.1,0.5,1.4
		c-0.3,0.4-0.5,0.9-0.5,1.5c0,0.7,0.4,1.4,0.9,1.8c-0.2,0.3-0.3,0.8-0.3,1.2c0,1.1,0.7,2,1.7,2.2c-0.1,0.2-0.1,0.4-0.1,0.6
		c0,1.2,0.9,2.2,2,2.2c0.2,0,0.4,0,0.5-0.1c-0.1,0.2-0.1,0.4-0.1,0.6c0,1.2,0.9,2.2,2,2.2c0.4,0,0.7-0.1,1-0.3c0.1,1.1,1,1.9,2,1.9
		c0.4,0,0.8-0.1,1.1-0.4c0.2,0.9,1,1.6,2,1.6c0.5,0,1-0.2,1.3-0.5c0.3,0.7,1,1.2,1.8,1.2c1.1,0,2-0.9,2-2.1c0,0,0,0,0,0
		c0.1,1.1,0.9,2.1,2,2.1c1,0,1.8-0.7,2-1.7c0.4,0.6,1,1.1,1.7,1.1c1.1,0,2-1,2-2.2c0-0.1,0-0.1,0-0.2c0.4,0.5,0.9,0.8,1.6,0.8
		c1,0,1.8-0.8,2-1.8c0.4,0.5,0.9,0.8,1.6,0.8c1.1,0,2-1,2-2.2c0-0.4-0.1-0.7-0.2-1c0.4,0.4,0.9,0.6,1.4,0.6c1.1,0,2-1,2-2.2
		c0-0.2,0-0.3,0-0.5c0.3,0.3,0.8,0.5,1.2,0.5c1.1,0,2-1,2-2.2c0-0.3-0.1-0.5-0.1-0.8c0.3,0.1,0.6,0.2,0.9,0.2c1.1,0,2-1,2-2.2
		c0-0.2,0-0.5-0.1-0.7c0.1,0,0.3,0,0.4,0c1.1,0,2-1,2-2.2c0-0.2,0-0.3-0.1-0.5c0.9-0.2,1.5-1.1,1.5-2.1c0-0.2,0-0.3-0.1-0.5
		c0.9-0.2,1.5-1.1,1.5-2.1c0-0.2,0-0.3-0.1-0.5c0.9-0.3,1.5-1.1,1.5-2.1c0-0.2,0-0.3-0.1-0.5c0.9-0.3,1.5-1.1,1.5-2.1
		c0-0.2,0-0.3-0.1-0.5c0.9-0.3,1.5-1.1,1.5-2.1c0-0.2,0-0.3-0.1-0.5c0.9-0.2,1.5-1.1,1.5-2.1c0-0.2,0-0.3-0.1-0.5
		c0.9-0.3,1.5-1.1,1.5-2.1c0-0.2,0-0.3-0.1-0.5c0.9-0.3,1.5-1.1,1.5-2.1c0-0.2,0-0.3-0.1-0.5c0.9-0.2,1.5-1.1,1.5-2.1
		c0-0.2,0-0.3-0.1-0.5c0.9-0.2,1.5-1.1,1.5-2.1c0-0.4-0.1-0.7-0.2-1c1.1-0.1,1.9-1,1.9-2.2c0-0.6-0.2-1.1-0.5-1.5
		c0.9-0.2,1.7-1.1,1.7-2.1c0-0.4-0.1-0.8-0.3-1.2c0,0,0.1,0,0.1,0c0.3,0,0.5-0.1,0.7-0.1c-0.4,4.2-0.4,8.4,0,12.4
		c0.5,4.9,1.6,9.5,2.8,13.8c1.2,4.2,2.6,8.2,3.9,11.9l1,2.8c0.3,0.9,0.6,1.7,0.9,2.5c0.6,1.7,1.1,3.3,1.5,4.9
		c0.8,3.2,1.2,6.3,1.2,9.1c0,1.4-0.1,2.7-0.4,4c-0.1,0.6-0.3,1.2-0.4,1.8c-0.1,0.3-0.2,0.6-0.3,0.8c-0.1,0.3-0.2,0.5-0.3,0.7
		c-0.8,2-2.1,3.6-3.6,4.7c-1.4,1.1-3,1.7-4.4,1.8c-2.8,0.3-5-1.1-6.5-2.3c-1.5-1.2-2.5-2.1-3.2-1.7c-0.7,0.3-1.1,1-1.1,2.1
		c0,0.6,0.2,1.3,0.5,2.1s0.9,1.8,1.8,2.8c0.9,1,2.1,2,3.7,2.8c0.1,0,0.1,0.1,0.2,0.1c0.4,0.5,0.9,0.8,1.6,0.8c0.2,0,0.4,0,0.5-0.1
		c0,0,0.1,0,0.1,0c0.3,0.7,1,1.1,1.8,1.1c0.5,0,1-0.2,1.4-0.6c0.3,0.9,1,1.6,1.9,1.6c1.1,0,1.9-0.9,2-2c0.4,0.3,0.8,0.5,1.3,0.5
		c1.1,0,2-1,2-2.2c0-0.1,0-0.2,0-0.2c0.3,0.2,0.7,0.4,1.2,0.4c1.1,0,2-1,2-2.2c0-0.2,0-0.4-0.1-0.6c0.3,0.2,0.6,0.3,1,0.3
		c1.1,0,2-1,2-2.2c0-0.4-0.1-0.7-0.2-1c0,0,0,0,0,0c1.1,0,2-1,2-2.2c0-0.5-0.1-0.9-0.4-1.2c1-0.1,1.8-1,1.8-2.2
		c0-0.4-0.1-0.8-0.3-1.1c0.8-0.3,1.4-1.1,1.4-2.1c0-0.4-0.1-0.8-0.3-1.2c0.8-0.3,1.3-1.1,1.3-2c0-0.6-0.3-1.2-0.7-1.6
		c0.6-0.4,0.9-1.1,0.9-1.8c0-0.8-0.4-1.5-1-1.9c0.4-0.4,0.6-1,0.6-1.6c0-0.9-0.5-1.6-1.2-2c0.5-0.4,0.8-1,0.8-1.7
		c0-0.7-0.3-1.4-0.8-1.8c0.3-0.4,0.4-0.8,0.4-1.3c0-1.1-0.8-2-1.8-2.2c0.4-0.4,0.6-0.9,0.6-1.5c0-1-0.6-1.8-1.4-2.1
		c0.4-0.4,0.6-0.9,0.6-1.5c0-1.2-0.8-2.1-1.9-2.2c0.6-0.4,1.1-1.1,1.1-1.9c0-1.1-0.8-2.1-1.9-2.2c0.6-0.4,1.1-1.1,1.1-1.9
		c0-1.1-0.8-2.1-1.9-2.2c0.6-0.4,1.1-1.1,1.1-1.9c0-1.1-0.8-2.1-1.9-2.2c0.6-0.4,1.1-1.1,1.1-1.9c0-1.2-0.8-2.1-1.9-2.2
		c0.6-0.4,1.1-1.1,1.1-1.9c0-0.9-0.5-1.6-1.2-2c0.6-0.4,0.9-1.1,0.9-1.8c0-0.9-0.5-1.7-1.3-2c0.6-0.4,1.1-1.1,1.1-1.9
		c0-0.8-0.4-1.5-1-1.8c0.7-0.3,1.2-1.1,1.2-2c0-0.7-0.3-1.3-0.8-1.7c0.6-0.4,1-1.1,1-1.9c0-0.6-0.2-1.1-0.6-1.5
		c0.7-0.3,1.2-1.1,1.2-2c0-0.5-0.2-0.9-0.4-1.3l0-0.1c0.7-0.3,1.3-1.1,1.3-2c0-0.2,0-0.3,0-0.4c0.7-0.3,1.2-1.1,1.2-2
		c0-0.2,0-0.3-0.1-0.5c0.8-0.3,1.5-1.1,1.5-2.1c0-0.2,0-0.4-0.1-0.6c0-0.1,0.1-0.1,0.1-0.2c0.9-0.2,1.6-1.1,1.6-2.1c0,0,0,0,0,0
		c0.8-0.2,1.5-0.9,1.6-1.8c0.8-0.2,1.4-0.8,1.6-1.6c1.8-1.7,3.8-3.1,5.8-4.1c0.5-0.3,1.1-0.5,1.6-0.7c0,0,0,0,0,0h0l0.1,0l0.5-0.2
		l1-0.3c4.7-1.4,9.3-2,14-2c4.7,0,9.3,0.6,14,2l1,0.3l0.5,0.2l0.1,0h0c0,0,0,0,0,0c0.5,0.2,1.1,0.4,1.6,0.7c2,1,4,2.4,5.8,4.1
		c0.2,0.8,0.8,1.4,1.6,1.6c0.1,0.9,0.8,1.6,1.6,1.8c0,0,0,0,0,0c0,1.1,0.7,1.9,1.6,2.1c0,0.1,0.1,0.1,0.1,0.2c0,0.2-0.1,0.4-0.1,0.6
		c0,1,0.6,1.8,1.5,2.1c0,0.2-0.1,0.3-0.1,0.5c0,0.9,0.5,1.6,1.2,2c0,0.1,0,0.3,0,0.4c0,0.9,0.5,1.7,1.3,2l0,0.1
		c-0.3,0.4-0.4,0.8-0.4,1.3c0,0.9,0.5,1.6,1.2,2c-0.4,0.4-0.6,0.9-0.6,1.5c0,0.8,0.4,1.5,1,1.9c-0.5,0.4-0.8,1-0.8,1.7
		c0,0.9,0.5,1.7,1.2,2c-0.6,0.4-1,1.1-1,1.8c0,0.8,0.4,1.5,1.1,1.9c-0.8,0.3-1.3,1.1-1.3,2c0,0.8,0.4,1.4,0.9,1.8
		c-0.7,0.3-1.2,1.1-1.2,2c0,0.8,0.4,1.5,1.1,1.9c-1,0.1-1.9,1-1.9,2.2c0,0.8,0.4,1.5,1.1,1.9c-1.1,0.1-1.9,1-1.9,2.2
		c0,0.8,0.4,1.5,1.1,1.9c-1,0.1-1.9,1-1.9,2.2c0,0.8,0.4,1.5,1.1,1.9c-1,0.1-1.9,1-1.9,2.2c0,0.8,0.4,1.5,1.1,1.9
		c-1.1,0.1-1.9,1-1.9,2.2c0,0.6,0.2,1.1,0.6,1.5c-0.8,0.3-1.5,1.1-1.5,2.1c0,0.6,0.2,1.1,0.6,1.5c-1,0.1-1.8,1-1.8,2.2
		c0,0.5,0.2,1,0.4,1.3c-0.5,0.4-0.8,1-0.8,1.8c0,0.7,0.3,1.3,0.8,1.7c-0.7,0.3-1.2,1.1-1.2,2c0,0.6,0.2,1.2,0.6,1.6
		c-0.6,0.4-1,1.1-1,1.9c0,0.8,0.4,1.4,0.9,1.8c-0.4,0.4-0.7,1-0.7,1.6c0,0.9,0.5,1.7,1.3,2c-0.2,0.3-0.3,0.7-0.3,1.2
		c0,0.9,0.6,1.8,1.4,2.1c-0.2,0.3-0.3,0.7-0.3,1.1c0,1.1,0.8,2,1.8,2.2c-0.2,0.3-0.4,0.8-0.4,1.2c0,1.2,0.9,2.2,2,2.2c0,0,0,0,0,0
		c-0.1,0.3-0.2,0.6-0.2,1c0,1.2,0.9,2.2,2,2.2c0.4,0,0.7-0.1,1-0.3c0,0.2-0.1,0.4-0.1,0.6c0,1.2,0.9,2.2,2,2.2
		c0.4,0,0.8-0.1,1.2-0.4c0,0.1,0,0.2,0,0.2c0,1.2,0.9,2.2,2,2.2c0.5,0,1-0.2,1.3-0.5c0.1,1.1,1,2,2,2c0.9,0,1.7-0.7,1.9-1.6
		c0.4,0.4,0.9,0.6,1.4,0.6c0.8,0,1.4-0.5,1.8-1.1c0,0,0.1,0,0.1,0c0.2,0,0.3,0.1,0.5,0.1c0.6,0,1.2-0.3,1.6-0.8
		c0.1,0,0.1-0.1,0.2-0.1c1.6-0.8,2.8-1.8,3.7-2.8c0.9-1,1.4-2,1.8-2.8c0.3-0.8,0.5-1.5,0.5-2.1c0.1-1.1-0.4-1.7-1.1-2.1
		c-0.7-0.4-1.7,0.5-3.2,1.7c-1.5,1.2-3.7,2.6-6.5,2.3c-1.4-0.1-2.9-0.7-4.4-1.8c-1.4-1.1-2.7-2.7-3.6-4.7c-0.1-0.3-0.2-0.5-0.3-0.7
		c-0.1-0.3-0.2-0.6-0.3-0.8c-0.2-0.6-0.3-1.2-0.4-1.8c-0.2-1.2-0.4-2.6-0.4-4c0-2.8,0.4-5.8,1.2-9.1c0.4-1.6,0.9-3.2,1.5-4.9
		c0.3-0.8,0.6-1.7,0.9-2.5l1-2.8c1.3-3.7,2.7-7.6,3.9-11.9c1.2-4.2,2.3-8.8,2.8-13.8c0.4-4,0.4-8.2,0-12.4c0.2,0.1,0.5,0.1,0.7,0.1
		c0.1,0,0.1,0,0.1,0c-0.2,0.3-0.3,0.7-0.3,1.2c0,1.1,0.7,2,1.7,2.1c-0.3,0.4-0.5,0.9-0.5,1.5c0,1.2,0.8,2.1,1.9,2.2
		c-0.1,0.3-0.2,0.6-0.2,1c0,1,0.6,1.8,1.5,2.1c0,0.2-0.1,0.3-0.1,0.5c0,1,0.6,1.8,1.5,2.1c0,0.2-0.1,0.3-0.1,0.5
		c0,1,0.6,1.8,1.5,2.1c0,0.2-0.1,0.3-0.1,0.5c0,1,0.6,1.9,1.5,2.1c0,0.2-0.1,0.3-0.1,0.5c0,1,0.6,1.9,1.5,2.1c0,0.2-0.1,0.3-0.1,0.5
		c0,1,0.6,1.8,1.5,2.1c0,0.2-0.1,0.3-0.1,0.5c0,1,0.6,1.8,1.5,2.1c0,0.2-0.1,0.3-0.1,0.5c0,1,0.6,1.9,1.5,2.1c0,0.2-0.1,0.3-0.1,0.5
		c0,1,0.6,1.9,1.5,2.1c0,0.2-0.1,0.3-0.1,0.5c0,1,0.6,1.8,1.5,2.1c0,0.2-0.1,0.3-0.1,0.5c0,1.2,0.9,2.2,2,2.2c0.1,0,0.3,0,0.4,0
		c-0.1,0.2-0.1,0.4-0.1,0.7c0,1.2,0.9,2.2,2,2.2c0.3,0,0.6-0.1,0.9-0.2c-0.1,0.2-0.1,0.5-0.1,0.8c0,1.2,0.9,2.2,2,2.2
		c0.5,0,0.9-0.2,1.2-0.5c0,0.1,0,0.3,0,0.5c0,1.2,0.9,2.2,2,2.2c0.5,0,1-0.2,1.4-0.6c-0.1,0.3-0.2,0.6-0.2,1c0,1.2,0.9,2.2,2,2.2
		c0.7,0,1.2-0.3,1.6-0.8c0.2,1,1,1.8,2,1.8c0.6,0,1.2-0.3,1.6-0.8c0,0.1,0,0.1,0,0.2c0,1.2,0.9,2.2,2,2.2c0.7,0,1.4-0.4,1.7-1.1
		c0.2,1,1,1.7,2,1.7c1.1,0,2-0.9,2-2.1c0,0,0,0,0,0c0.1,1.1,0.9,2.1,2,2.1c0.8,0,1.4-0.5,1.8-1.2c0.4,0.3,0.8,0.5,1.3,0.5
		c0.9,0,1.7-0.7,2-1.6c0.3,0.2,0.7,0.4,1.1,0.4c1,0,1.9-0.8,2-1.9c0.3,0.2,0.7,0.3,1,0.3c1.1,0,2-1,2-2.2c0-0.2,0-0.4-0.1-0.6
		c0.2,0.1,0.4,0.1,0.5,0.1c1.1,0,2-1,2-2.2c0-0.2,0-0.4-0.1-0.6c1-0.2,1.7-1.1,1.7-2.2c0-0.4-0.1-0.9-0.3-1.2c0.5-0.4,0.9-1,0.9-1.8
		c0-0.6-0.2-1.1-0.5-1.5c0.3-0.4,0.5-0.9,0.5-1.4c0-0.3-0.1-0.7-0.2-1c0.1-1.2,0.2-2.5,0.1-3.6c-0.1-1-0.2-2-0.4-2.9
		c-0.2-0.9-0.4-1.9-0.7-2.8c-0.6-1.7-1.4-3.2-2.3-4.5c-0.9-1.3-1.9-2.5-3.1-3.5c-1.2-1-2.6-1.8-4.1-2.2c-1.5-0.4-3.1-0.3-4.4,0.1
		c-0.3,0.1-0.6,0.2-0.9,0.3c-0.1,0.1-0.3,0.1-0.4,0.2l-0.1,0c0,0,0.1,0,0.1,0l0,0l-0.1,0l-0.2,0.1c-0.7,0.4-1.2,0.8-1.7,1.2
		c-1,0.9-1.6,1.9-2,2.8c-0.4,0.9-0.7,1.8-0.8,2.7c-0.5,3.4,0.8,5.9,2,6.8c0.6,0.5,1.1,0.6,1.5,0.5c0.4-0.1,0.7-0.3,0.9-0.7
		c0.2-0.3,0.1-0.8,0.1-1.4c-0.1-0.6-0.1-1.3,0-2.2c0.1-0.9,0.5-2.1,1.2-2.9c0.4-0.4,0.8-0.7,1.1-0.8c0.7-0.2,1.1-0.3,1.6-0.1
		c0.4,0.1,1,0.4,1.5,0.9c0.6,0.5,1.2,1.3,1.7,2.3c0.5,0.9,1,2.1,1.3,3.2c0.3,1,0.4,2.4,0.4,3.6c-0.1,2.5-1,4.7-2.7,6.4
		c-1.7,1.7-4.4,2.8-7.3,2.8c-1.4,0-3-0.3-4.4-0.8c-1.4-0.5-2.8-1.3-4.1-2.3c-2.6-2-5-5.1-7.1-8.8c-1.1-1.8-2.1-3.8-3.1-5.9l-1.5-3.2
		c-0.5-1.1-1-2.2-1.5-3.3c-1.9-4.4-3.8-9.2-5.9-14c-2.1-4.9-4.4-10-7.3-15c-1-1.7-2-3.4-3.2-5c0.2,0,0.5-0.1,0.7-0.1
		c0.1,1,1,1.8,2,1.8c0.2,0,0.5-0.1,0.7-0.1c0.1,1,1,1.8,2,1.8c0.3,0,0.5-0.1,0.7-0.1c0.1,1,1,1.8,2,1.8c0.2,0,0.4,0,0.6-0.1
		c0,0,0.1,0,0.1,0.1c0.2,1,1,1.7,2,1.7c0.2,0,0.4,0,0.6-0.1c0.1,0,0.1,0.1,0.2,0.1c0.2,1,1,1.7,2,1.7c0.2,0,0.5,0,0.7-0.1
		c0,0,0,0,0,0c0.2,1,1,1.8,2,1.8c0.3,0,0.5-0.1,0.7-0.1c0.2,1,1,1.8,2,1.8c0.3,0,0.5-0.1,0.7-0.1c0.2,1.1,1,1.8,2,1.8
		c0.3,0,0.5-0.1,0.7-0.1c0.2,1,1,1.8,2,1.8c0.3,0,0.5-0.1,0.7-0.1c0.2,1,1,1.8,2,1.8c0.7,0,1.3-0.4,1.7-1c0.1,1.1,1,2,2,2
		c0.8,0,1.4-0.4,1.8-1.1c0,1.2,0.9,2.1,2,2.1c0.8,0,1.6-0.6,1.9-1.3c0.2,1,1,1.8,2,1.8c0.8,0,1.5-0.5,1.8-1.3c0.2,1,1,1.8,2,1.8
		c1,0,1.9-0.8,2-1.9c0.1,0,0.1,0,0.2,0c0.4,0.5,1,0.9,1.7,0.9c0.9,0,1.6-0.6,1.9-1.4c0,0,0.1,0,0.1,0c0.4,0.4,0.9,0.7,1.5,0.7
		c1,0,1.8-0.7,2-1.7c0.4,0.3,0.8,0.5,1.3,0.5c1.1,0,2-1,2-2.2c1.1,0,2-1,2-2.2c0-0.2,0-0.3,0-0.4c0.7-0.4,1.1-1.1,1.1-1.9
		c0-0.2,0-0.3-0.1-0.5c0.6-1.2,1.1-2.5,1.3-3.8C925.2,402.9,922,397.9,917,396.3z M767,407.9c0,0,4.6-20,20.1-26.3
		C787.1,381.7,775.1,389.7,767,407.9z M787,345.6c-5.7,0-10.3-4.9-10.3-11c0-6.1,4.6-11,10.3-11c5.7,0,11.3,8.4,11.3,14.5
		C798.2,344.1,792.6,345.6,787,345.6z M825.1,338c0-6.1,5.6-14.5,11.3-14.5c5.7,0,10.3,4.9,10.3,11c0,6.1-4.6,11-10.3,11
		C830.6,345.6,825.1,344.1,825.1,338z M836.2,381.7c15.5,6.2,20.1,26.3,20.1,26.3C848.2,389.7,836.2,381.7,836.2,381.7z"/>
</g>
<g>
	<g>
		<path class="st0" d="M978.5,327.3h-4.3c-3.9-2.3-6-5-6-8.1c0-4.5,5-8.5,11.3-10.5v-0.7c0-0.5-3.2-0.7-6.7-0.4
			c0,0-54.9,6.3-86.5,9.4c-11.3,1.1-18.1,3.3-21.6,6.5c-0.7-0.9-1.1-1.8-1.1-2.9c0-0.5,0-1.3,0.4-1.8c-3.2,1.4-5.3,3.4-5.3,5.8
			c0,1.4,1.8,16.1,2.5,23.8c1.1,12.3-14.2,20.8-34.7,28.2c-6.4,2.3-6.4,6.5-6.4,6.5c0,1.3,1.1,2.3,2.8,3.1
			c5.7-2.5,16.7-4.3,29.4-4.3c12,0,23,3.8,29.4,6.5c-2.5-8.8-6-20.8-6-20.6l8.2,22l0,0v0.2c1.4,0.5,2.5,0.9,3.2,0.7
			c1.1-0.2,1.8-0.7,1.4-1.1l-2.8-6.5c4.3-10.1,31.2-9.2,42.2-8.5c-8.9-7.8-20.2-18.2-19.8-18.1l25.2,19.5c0.7,0.2,1.4,0.2,1.8,0l0,0
			c1.1-0.4,1.1-0.9,0.7-1.4l-7.4-5.8c-5-14.3,18.1-32.9,40-38.6c-17.4-0.5-50-1.6-49.3-1.1h59.5h0.4c0.4-0.7,0.7-0.9,0.7-1.3
			C980.3,327.6,979.6,327.1,978.5,327.3z"/>
		<path class="st0" d="M797.1,376.8c-20.2-7.4-35.4-15.9-34.7-28.2c0.7-7.9,2.5-22.4,2.5-23.8c0-2.3-2.1-4.3-5.3-5.8
			c0.4,0.5,0.4,1.1,0.4,1.8c0,1.1-0.4,2-1.1,2.9c-3.5-3.1-10.3-5.4-21.6-6.5c-31.5-3.1-86.5-9.4-86.5-9.4c-3.5-0.4-6.4-0.2-7.8,0.4
			v0.7c7.4,2,12.4,6,12.4,10.5c0,3.1-2.5,5.8-6,7.9h-3.9c-1.1,0-1.8,0.4-1.8,0.9c0,0.4,0.4,0.5,0.7,0.9h0.4h59.5
			c0.7-0.2-31.9,0.9-49.3,1.5c22,5.8,45.4,24.4,40,38.6l-7.4,5.8c-0.7,0.5-0.4,1.1,0.7,1.4l0,0c0.7,0.2,1.4,0.2,1.8,0l25.2-19.5
			c0.4-0.4-11.3,10.1-19.8,18.1c10.6-0.7,37.6-1.6,42.2,8.5l-3.2,6.5c-0.4,0.5,0.4,1.1,1.4,1.1c1.1,0.2,2.1-0.2,2.8-0.7v-0.2l0,0
			l8.5-22c0-0.4-3.2,11.6-6,20.6c6.4-2.7,17.4-6.5,29.4-6.5c12.8,0,23.7,1.8,29.4,4.3c1.8-0.7,2.8-1.8,2.8-3.1
			C803.5,383.3,803.5,379.1,797.1,376.8z"/>
	</g>
</g>
<path class="st1" d="M915.7,490.1H707.1v-87.6h208.5V490.1z M709.4,487.2h206.3v-84.8H709.4V487.2z"/>
<path class="st1" d="M873.5,470.3h-31.1V459h31.1V470.3z M842.5,470.3h28.8v-8.5h-28.8V470.3z"/>
<path class="st1" d="M720.5,416.6h-8.9v-8.5h8.9V416.6z M713.8,413.8h6.7v-2.8h-6.7V413.8z"/>
<path class="st1" d="M720.5,433.5h-8.9v-11.3h8.9C720.5,422.2,720.5,433.5,720.5,433.5z M713.8,430.7h6.7v-8.5h-6.7V430.7z"/>
<path class="st1" d="M731.5,433.5h-8.9v-11.3h8.9V433.5z M724.9,430.7h6.7v-8.5h-6.7V430.7z"/>
<path class="st1" d="M742.6,433.5h-8.9v-11.3h8.9V433.5z M733.8,430.7h6.7v-8.5h-6.7V430.7z"/>
<path class="st1" d="M753.7,433.5h-8.9v-11.3h8.9V433.5z M744.9,430.7h6.7v-8.5h-6.7V430.7z"/>
<path class="st1" d="M764.8,433.5H756v-11.3h8.9V433.5z M756.4,430.7h6.2v-8.5H756v8.5H756.4z"/>
<path class="st1" d="M773.7,433.5h-8.9v-11.3h8.9V433.5z M767,430.7h6.7v-8.5H767V430.7z"/>
<path class="st1" d="M784.8,433.5h-8.9v-11.3h8.9V433.5z M778.1,430.7h6.7v-8.5h-6.7V430.7z"/>
<path class="st1" d="M795.9,433.5H787v-11.3h8.9V433.5z M789.2,430.7h6.7v-8.5h-6.7V430.7z"/>
<path class="st1" d="M807,433.5h-8.9v-11.3h8.9V433.5z M798.1,430.7h6.7v-8.5h-6.7V430.7z"/>
<path class="st1" d="M818.1,433.5h-8.9v-11.3h8.9V433.5z M809.2,430.7h6.7v-8.5h-6.7V430.7z"/>
<path class="st1" d="M829.2,433.5h-8.9v-11.3h8.9V433.5z M820.3,430.7h6.7v-8.5h-6.7V430.7z"/>
<path class="st1" d="M838,433.5h-8.9v-11.3h8.9V433.5z M831.4,430.7h6.7v-8.5h-6.7V430.7z"/>
<path class="st1" d="M849.1,433.5h-8.9v-11.3h8.9V433.5z M842.5,430.7h6.7v-8.5h-6.7V430.7z"/>
<path class="st1" d="M873.3,433.5h-22v-11.3h22.2v11.3H873.3z M853.6,430.7h20v-8.5h-20V430.7z"/>
<path class="st1" d="M889,433.5h-8.9v-11.3h8.9V433.5z M880.2,430.7h6.7v-8.5h-6.7V430.7z"/>
<path class="st1" d="M900.1,433.5h-8.9v-11.3h8.9V433.5z M891.7,430.7h6.2v-8.5h-6.7v8.5H891.7z"/>
<path class="st1" d="M909,433.5h-8.9v-11.3h8.9V433.5z M902.4,430.7h6.7v-8.5h-6.7V430.7z"/>
<path class="st1" d="M722.7,444.8h-11.1v-11.3h11.1V444.8z M713.8,444.8h8.9v-8.5h-8.9V444.8z"/>
<path class="st1" d="M733.8,444.8h-8.9v-11.3h8.9C733.8,433.5,733.8,444.8,733.8,444.8z M727.1,444.8h6.7v-8.5h-6.7V444.8z"/>
<path class="st1" d="M744.9,444.8H736v-11.3h8.9V444.8z M738.2,444.8h6.7v-8.5h-6.7V444.8z"/>
<path class="st1" d="M756,444.8h-8.9v-11.3h8.9V444.8z M747.1,444.8h6.7v-8.5h-6.7V444.8z"/>
<path class="st1" d="M767,444.8h-8.9v-11.3h8.9V444.8z M758.2,444.8h6.7v-8.5h-6.7V444.8z"/>
<path class="st1" d="M778.1,444.8h-8.9v-11.3h8.9V444.8z M769.3,444.8h6.7v-8.5h-6.7V444.8z"/>
<path class="st1" d="M787,444.8h-8.9v-11.3h8.9V444.8z M780.4,444.8h6.7v-8.5h-6.7V444.8z"/>
<path class="st1" d="M798.1,444.8h-8.9v-11.3h8.9V444.8z M791.4,444.8h6.7v-8.5h-6.7V444.8z"/>
<path class="st1" d="M809.2,444.8h-8.9v-11.3h8.9V444.8z M802.5,444.8h6.7v-8.5h-6.7L802.5,444.8L802.5,444.8z"/>
<path class="st1" d="M820.3,444.8h-8.9v-11.3h8.9V444.8z M811.4,444.8h6.7v-8.5h-6.7V444.8z"/>
<path class="st1" d="M831.4,444.8h-8.9v-11.3h8.9V444.8z M822.5,444.8h6.7v-8.5h-6.7V444.8z"/>
<path class="st1" d="M842.5,444.8h-8.9v-11.3h8.9V444.8z M833.6,444.8h6.7v-8.5h-6.7V444.8z"/>
<path class="st1" d="M853.6,444.8h-8.9v-11.3h8.9V444.8z M844.7,444.8h6.7v-8.5h-6.7V444.8z"/>
<path class="st1" d="M889,444.8h-8.9v-11.3h8.9V444.8z M880.2,444.8h6.7v-8.5h-6.7V444.8z"/>
<path class="st1" d="M900.1,444.8h-8.9v-11.3h8.9V444.8z M891.7,444.8h6.2v-8.5h-6.7v8.5H891.7z"/>
<path class="st1" d="M909,444.8h-8.9v-11.3h8.9V444.8z M902.4,444.8h6.7v-8.5h-6.7V444.8z"/>
<path class="st1" d="M722.7,470.3h-11.1V459h11.1V470.3z M713.8,470.3h6.7v-8.5h-6.7V470.3z"/>
<path class="st1" d="M733.8,470.3h-8.9V459h8.9V470.3z M724.9,470.3h6.7v-8.5h-6.7V470.3z"/>
<path class="st1" d="M742.6,470.3h-8.9V459h8.9V470.3z M736,470.3h6.7v-8.5H736V470.3z"/>
<path class="st1" d="M753.7,470.3h-8.9V459h8.9V470.3z M747.1,470.3h6.7v-8.5h-6.7V470.3z"/>
<path class="st1" d="M764.8,470.3H756V459h8.9V470.3z M758.2,470.3h6.7v-8.5h-6.7V470.3z"/>
<path class="st1" d="M775.9,470.3H767V459h8.9V470.3z M767,470.3h6.7v-8.5H767V470.3z"/>
<path class="st1" d="M787,470.3h-8.9V459h8.9V470.3z M778.1,470.3h6.7v-8.5h-6.7V470.3z"/>
<path class="st1" d="M798.1,470.3h-8.9V459h8.9V470.3z M789.2,470.3h6.7v-8.5h-6.7V470.3z"/>
<path class="st1" d="M807,470.3h-8.9V459h8.9V470.3z M800.3,470.3h6.7v-8.5h-6.7V470.3z"/>
<path class="st1" d="M818.1,470.3h-8.9V459h8.9V470.3z M811.4,470.3h6.7v-8.5h-6.7V470.3z"/>
<path class="st1" d="M829.2,470.3h-8.9V459h8.9V470.3z M822.5,470.3h6.7v-8.5h-6.7V470.3z"/>
<path class="st1" d="M840.2,470.3h-8.9V459h8.9V470.3z M831.4,470.3h6.7v-8.5h-6.7V470.3z"/>
<path class="st1" d="M900.1,470.3h-8.9V459h8.9V470.3z M891.3,470.3h6.7v-8.5h-6.7V470.3z"/>
<path class="st1" d="M722.7,484.4h-11.1v-11.3h11.1C722.7,473.1,722.7,484.4,722.7,484.4z M713.8,481.6h6.7v-8.5h-6.7V481.6z"/>
<path class="st1" d="M733.8,484.4h-8.9v-11.3h8.9V484.4z M724.9,481.6h6.7v-8.5h-6.7V481.6z"/>
<path class="st1" d="M742.6,484.4h-8.9v-11.3h8.9V484.4z M736,481.6h6.7v-8.5H736V481.6z"/>
<path class="st1" d="M753.7,484.4h-8.9v-11.3h8.9V484.4z M747.1,481.6h6.7v-8.5h-6.7V481.6z"/>
<path class="st1" d="M822.3,484.4H756v-11.3h66.5v11.3H822.3z M758.2,481.6h62.1v-8.5h-62.1V481.6z"/>
<path class="st1" d="M833.6,484.4h-8.9v-11.3h8.9V484.4z M824.7,481.6h6.7v-8.5h-6.7V481.6z"/>
<path class="st1" d="M844.7,484.4h-8.9v-11.3h8.9V484.4z M835.8,481.6h6.7v-8.5h-6.7V481.6z"/>
<path class="st1" d="M855.8,484.4h-8.9v-11.3h8.9V484.4z M846.9,481.6h6.7v-8.5h-6.7V481.6z"/>
<path class="st1" d="M871.3,484.4h-15.5v-11.3h15.5V484.4z M858,481.6h13.3v-8.5H858V481.6z"/>
<path class="st1" d="M889,484.4h-8.9v-11.3h8.9V484.4z M880.2,481.6h6.7v-8.5h-6.7V481.6z"/>
<path class="st1" d="M900.1,484.4h-8.9v-11.3h8.9V484.4z M891.3,481.6h6.7v-8.5h-6.7V481.6z"/>
<path class="st1" d="M909,484.4h-8.9v-11.3h8.9V484.4z M902.4,481.6h6.7v-8.5h-6.7V481.6z"/>
<path class="st1" d="M727.1,459h-15.5v-11.3h15.5V459z M713.8,456.2h13.3v-8.5h-13.3V456.2z"/>
<path class="st1" d="M738.2,459h-8.9v-11.3h8.9V459z M729.3,456.2h6.7v-8.5h-6.7V456.2z"/>
<path class="st1" d="M749.3,459h-8.9v-11.3h8.9V459z M740.4,456.2h6.7v-8.5h-6.7V456.2z"/>
<path class="st1" d="M760.4,459h-8.9v-11.3h8.9V459z M751.5,456.2h6.7v-8.5h-6.7V456.2z"/>
<path class="st1" d="M771.5,459h-8.9v-11.3h8.9V459z M762.6,456.2h6.7v-8.5h-6.7V456.2z"/>
<path class="st1" d="M780.4,459h-8.9v-11.3h8.9V459z M773.7,456.2h6.7v-8.5h-6.7V456.2z"/>
<path class="st1" d="M791.4,459h-8.9v-11.3h8.9V459z M784.8,456.2h6.7v-8.5h-6.7V456.2z"/>
<path class="st1" d="M802.5,459h-8.9v-11.3h8.9V459z M795.9,456.2h6.7v-8.5h-6.7V456.2z"/>
<path class="st1" d="M813.6,459h-8.9v-11.3h8.9V459z M804.8,456.2h6.7v-8.5h-6.7V456.2z"/>
<path class="st1" d="M824.7,459h-8.9v-11.3h8.9V459z M815.8,456.2h6.7v-8.5h-6.7V456.2z"/>
<path class="st1" d="M835.8,459h-8.9v-11.3h8.9V459z M826.9,456.2h6.7v-8.5h-6.7V456.2z"/>
<path class="st1" d="M844.7,459h-8.9v-11.3h8.9V459z M838,456.2h6.7v-8.5H838V456.2z"/>
<path class="st1" d="M855.8,459h-8.9v-11.3h8.9V459z M849.1,456.2h6.7v-8.5h-6.7V456.2z"/>
<path class="st1" d="M873.3,456.2H858v-11.3h-4.4v-11.3h20v22.6L873.3,456.2L873.3,456.2z M860.7,456.2h12.9v-19.8h-17.7v5.7h4.4
	v14.1H860.7z"/>
<path class="st1" d="M738.2,416.6h-8.9v-8.5h8.9V416.6z M729.3,413.8h6.7v-2.8h-6.7V413.8z"/>
<path class="st1" d="M749.3,416.6h-8.9v-8.5h8.9V416.6z M740.4,413.8h6.7v-2.8h-6.7V413.8z"/>
<path class="st1" d="M760.4,416.6h-8.9v-8.5h8.9V416.6z M751.5,413.8h6.7v-2.8h-6.7V413.8z"/>
<path class="st1" d="M769.3,416.6h-8.9v-8.5h8.9V416.6z M762.6,413.8h6.7v-2.8h-6.7V413.8z"/>
<path class="st1" d="M789.2,416.6h-8.9v-8.5h8.9V416.6z M782.6,413.8h6.7v-2.8h-6.7V413.8z"/>
<path class="st1" d="M800.3,416.6h-8.9v-8.5h8.9V416.6z M793.7,413.8h6.7v-2.8h-6.7V413.8z"/>
<path class="st1" d="M811.4,416.6h-8.9v-8.5h8.9V416.6z M804.8,413.8h6.7v-2.8h-6.7V413.8z"/>
<path class="st1" d="M822.5,416.6h-8.9v-8.5h8.9V416.6z M815.8,413.8h6.7v-2.8h-6.7V413.8z"/>
<path class="st1" d="M842.5,416.6h-8.9v-8.5h8.9V416.6z M833.6,413.8h6.7v-2.8h-6.7V413.8z"/>
<path class="st1" d="M851.3,416.6h-8.9v-8.5h8.9V416.6z M844.7,413.8h6.7v-2.8h-6.7V413.8z"/>
<path class="st1" d="M862.4,416.6h-8.9v-8.5h8.9V416.6z M855.8,413.8h6.7v-2.8h-6.7V413.8z"/>
<path class="st1" d="M873.5,416.6h-8.9v-8.5h8.9V416.6z M866.9,413.8h6.7v-2.8h-6.7V413.8z"/>
<path class="st1" d="M889,416.6h-8.9v-8.5h8.9V416.6z M880.2,413.8h6.7v-2.8h-6.7V413.8z"/>
<path class="st1" d="M900.1,416.6h-8.9v-8.5h8.9V416.6z M891.7,413.8h6.2v-2.8h-6.7v2.8H891.7z"/>
<path class="st1" d="M909,416.6h-8.9v-8.5h8.9V416.6z M902.4,413.8h6.7v-2.8h-6.7V413.8z"/>
</svg>
